<?xml version="1.0" encoding="utf-8"?>
<!-- Generator: Adobe Illustrator 22.1.0, SVG Export Plug-In . SVG Version: 6.00 Build 0)  -->
<svg version="1.1" id="Слой_1" xmlns="http://www.w3.org/2000/svg" xmlns:xlink="http://www.w3.org/1999/xlink" x="0px" y="0px"
	 viewBox="0 0 32 24" style="enable-background:new 0 0 32 24;" xml:space="preserve">
<style type="text/css">
	.st0{fill:#A1B0C1;}
</style>
<path id="Eye.svg" class="st0" d="M31.9,11.6C31.9,11.5,27.2,0,16,0S0.1,11.5,0.1,11.6c-0.1,0.2-0.1,0.5,0,0.7
	C0.1,12.5,4.7,24,16,24s15.9-11.5,15.9-11.6C32,12.1,32,11.9,31.9,11.6z M16,22C7,22,2.9,13.9,2.1,12C2.9,10.1,7,2,16,2
	s13.1,8.1,13.9,10C29.1,13.9,24.9,22,16,22z M16,6c-3.3,0-6,2.7-6,6s2.7,6,6,6s6-2.7,6-6S19.3,6,16,6z M16,16c-2.2,0-4-1.8-4-4
	s1.8-4,4-4s4,1.8,4,4S18.2,16,16,16z"/>
</svg>
