<?xml version="1.0" encoding="utf-8"?>
<!-- Generator: Adobe Illustrator 22.1.0, SVG Export Plug-In . SVG Version: 6.00 Build 0)  -->
<svg version="1.1" id="Слой_1" xmlns="http://www.w3.org/2000/svg" xmlns:xlink="http://www.w3.org/1999/xlink" x="0px" y="0px"
	 viewBox="0 0 32 26" style="enable-background:new 0 0 32 26;" xml:space="preserve">
<style type="text/css">
	.st0{fill:#FFFFFF;}
</style>
<path id="Heart2.svg" class="st0" d="M24,0c-2.1,0-4.2,0.8-5.7,2.3L16,4.7l-2.3-2.3c-3.1-3.1-8.2-3.1-11.3,0C0.8,3.8,0,5.9,0,8
	c0,2.2,0.8,3.6,2.9,5.7l11.7,11.7c0.8,0.8,2,0.8,2.8,0l11.7-11.7C31.2,11.7,32,10.2,32,8C32,3.6,28.4,0,24,0z M28,12L16,24L4,12
	c-1.2-1-1.9-2.4-2-4c0-3.3,2.7-6,6-6c1.7,0,3.3,0.7,4.5,2c0.3,0.3,2.3,3,3.5,3c1.3,0,3.3-2.7,3.5-3c2.2-2.5,6-2.7,8.5-0.5
	c1.3,1.1,2,2.8,2,4.5C30,9.6,29.2,11,28,12L28,12z"/>
</svg>
