<?xml version="1.0" encoding="utf-8"?>
<!-- Generator: Adobe Illustrator 22.1.0, SVG Export Plug-In . SVG Version: 6.00 Build 0)  -->
<svg version="1.1" id="Слой_1" xmlns="http://www.w3.org/2000/svg" xmlns:xlink="http://www.w3.org/1999/xlink" x="0px" y="0px"
	 viewBox="0 0 32 32" style="enable-background:new 0 0 32 32;" xml:space="preserve">
<style type="text/css">
	.st0{fill:#A1B0C1;}
</style>
<path id="Map.svg" class="st0" d="M31.2,0.4C30.6,0,30-0.1,29.4,0.1L21,2.9l-9.4-2.8C11.4,0,11.2,0,11,0c-0.2,0-0.4,0-0.6,0.1l-9,3
	C0.6,3.4,0,4.1,0,5v25c0,1.1,0.9,2,2,2c0.2,0,0.4,0,0.6-0.1l8.4-2.8l9.4,2.8c0.4,0.1,0.8,0.1,1.2,0l9-3c0.8-0.3,1.4-1,1.4-1.9V2
	C32,1.4,31.7,0.8,31.2,0.4z M12,2.3l8,2.4v25l-8-2.4V2.3z M2,30V5l8-2.7v25L2,30z M30,27l-8,2.7v-25L30,2l0,0V27z"/>
</svg>
