<svg xmlns="http://www.w3.org/2000/svg" xmlns:xlink="http://www.w3.org/1999/xlink" x="0" y="0" viewBox="0 0 64 64" >
	<path fill="#A1B0C1" d="M60,0H4C1.8,0,0,1.8,0,4v56c0,2.2,1.8,4,4,4h56c2.2,0,4-1.8,4-4V4C64,1.8,62.2,0,60,0z M62,60c0,1.1-0.9,2-2,2H4c-1.1,0-2-0.9-2-2v-2.8l14.6-14.6c0.8-0.8,2-0.8,2.8,0c0,0,0,0,0,0c0,0,6.2,6.2,7.2,7.2c0.6,0.8,1.7,0.9,2.5,0.4c0.1-0.1,0.3-0.2,0.4-0.4l17.2-17.2c0.8-0.8,2-0.8,2.8,0c0,0,0,0,0,0L62,45.2V60z M62,42.3L50.8,31.2c-1.6-1.6-4.1-1.6-5.6,0c0,0,0,0,0,0L28,48.3l-7.2-7.2c-1.6-1.6-4.1-1.6-5.6,0c0,0,0,0,0,0L2,54.4V4c0-1.1,0.9-2,2-2h56c1.1,0,2,0.9,2,2V42.3z M29,17h-3c0,0,0,0-0.1,0c-0.2-1.4-0.7-2.8-1.6-3.9c0,0,0,0,0.1,0l2.1-2.1c0.4-0.4,0.4-1,0-1.4c-0.4-0.4-1-0.4-1.4,0L23,11.6c0,0,0,0,0,0.1c-1.1-0.9-2.5-1.5-3.9-1.6c0,0,0,0,0-0.1V7c0-0.6-0.4-1-1-1s-1,0.4-1,1v3c0,0,0,0,0,0.1c-1.4,0.2-2.8,0.7-3.9,1.6c0,0,0,0,0-0.1l-2.1-2.1c-0.4-0.4-1-0.4-1.4-0.1s-0.4,1-0.1,1.4c0,0,0,0,0.1,0.1l2.1,2.1c0,0,0,0,0.1,0c-0.9,1.1-1.4,2.5-1.6,3.9c0,0-0.1,0-0.1,0H7c-0.6,0-1,0.4-1,1s0.4,1,1,1h3c0,0,0,0,0.1,0c0.2,1.4,0.7,2.8,1.6,3.9c0,0,0,0-0.1,0l-2.1,2.1c-0.4,0.4-0.4,1,0,1.4c0.4,0.4,1,0.4,1.4,0l2.1-2.1c0,0,0,0,0-0.1c1.1,0.9,2.5,1.5,3.9,1.6c0,0,0,0,0,0.1v3c0,0.6,0.4,1,1,1s1-0.4,1-1v-3c0,0,0,0,0-0.1c1.4-0.2,2.8-0.7,3.9-1.6c0,0,0,0,0,0.1l2.1,2.1c0.4,0.4,1,0.4,1.4,0c0.4-0.4,0.4-1,0-1.4l-2.1-2.1c0,0,0,0-0.1,0c0.9-1.1,1.4-2.5,1.6-3.9c0,0,0.1,0,0.1,0h3c0.6,0,1-0.4,1-1S29.6,17,29,17zM18,24c-3.3,0-6-2.7-6-6s2.7-6,6-6s6,2.7,6,6S21.3,24,18,24z"/>
</svg>