<?xml version="1.0" encoding="utf-8"?>
<!-- Generator: Adobe Illustrator 22.1.0, SVG Export Plug-In . SVG Version: 6.00 Build 0)  -->
<svg version="1.1" id="Слой_1" xmlns="http://www.w3.org/2000/svg" xmlns:xlink="http://www.w3.org/1999/xlink" x="0px" y="0px"
	 viewBox="0 0 32 32" style="enable-background:new 0 0 32 32;" xml:space="preserve">
<style type="text/css">
	.st0{fill:#A1B0C1;}
</style>
<path id="Printer.svg" class="st0" d="M30,6h-4V1c0-0.6-0.4-1-1-1H7C6.4,0,6,0.4,6,1v5H2C0.9,6,0,6.9,0,8v16c0,1.1,0.9,2,2,2h4v5
	c0,0.6,0.4,1,1,1h18c0.6,0,1-0.4,1-1v-5h4c1.1,0,2-0.9,2-2V8C32,6.9,31.1,6,30,6z M8,2h16v4H8V2z M24,30H8V18h16V30z M30,23
	c0,0.6-0.4,1-1,1h-3v-7c0-0.6-0.4-1-1-1H7c-0.6,0-1,0.4-1,1v7H3c-0.6,0-1-0.4-1-1V9c0-0.6,0.4-1,1-1h26c0.6,0,1,0.4,1,1V23z M27,10
	c-0.6,0-1,0.4-1,1s0.4,1,1,1s1-0.4,1-1S27.6,10,27,10z M23,10c-0.6,0-1,0.4-1,1s0.4,1,1,1s1-0.4,1-1S23.6,10,23,10z"/>
</svg>
